<svg xmlns="http://www.w3.org/2000/svg" width="160.079" height="36.409" viewBox="0 0 160.079 36.409">
                        <g id="Group_111311" data-name="Group 1113" transform="translate(0 0)">
                            <path id="Path_555911" data-name="Path 5559" d="M408.46,0V3.371h6.6V33.038H408.4v3.371h10.026V0Z" transform="translate(-258.348)" fill="#fff"></path>
                            <path id="Path_556110" data-name="Path 5560" d="M0,0V36.409H75.952V33.038H3.371V3.371h72.9V0Z" fill="#fff"></path>
                            <rect id="Rectangle_35611" data-name="Rectangle 356" width="75.191" height="0.674" transform="translate(74.92 34.387)" fill="#fff"></rect>
                            <rect id="Rectangle_35711" data-name="Rectangle 357" width="75.191" height="0.674" transform="translate(74.92 1.348)" fill="#fff"></rect>
                            <path id="Path_556111" data-name="Path 5561" d="M271.01,38.522h-6.116v.742h6.116Zm2.047,2.636H261.976l-2.064-1.894V17.607h2.062V38.522l.857.742V17.607h2.063V36.7h3.18V17.607h2.062V36.7h.857V17.607h2.063Z" transform="translate(-164.416 -11.138)" fill="#fff"></path>
                            <path id="Path_556211" data-name="Path 5562" d="M307.079,19.423h-.854V26.45h.854Zm5.242,7.026V21.987h-3.18V26.45Zm0,2.565v-.75h-6.1v.75Zm2.919-7.028h-.854l0,7.043.857-.765Zm.017-1.815-.871-.75h-5.245v.753ZM314.064,30.83l4.766,10.328h-2.065L312,30.83h-.857l4.769,10.328h-2.065l-4.7-10.328V41.158h-2.062V30.83h-.854V41.158H304.16V17.607h11.081l2.065,1.815v9.593l-2.065,1.815Z" transform="translate(-192.406 -11.138)" fill="#fff"></path>
                            <path id="Path_556311" data-name="Path 5563" d="M351.218,21.987h-.847V38.522l.847.739Zm5.249-2.565h-6.094v.752h6.094Zm0,2.565H353.29V36.7h3.177Zm2.919-1.812-.854-.743V36.7h.854Zm-.854,19.089.871-.751h-6.113v.751Zm2.919,0-2.065,1.894h-9.016l-2.065-1.894V17.607h11.081l2.065,1.815Z" transform="translate(-220.332 -11.138)" fill="#fff"></path>
                            <path id="Path_556411" data-name="Path 5564" d="M222.036,41.16H224.1V31.59l.817-1.119,4.4,10.689h2.064L226.26,28.635l.638-.873,5.474,13.4h2.064l-6.146-15.3,6.027-8.247h-2.273L224.1,28.8V27.242l6.693-9.631h-2.064L224.1,24.035V17.611h-2.065Z" transform="translate(-140.456 -11.14)" fill="#fff"></path>
                            <rect id="Rectangle_35811" data-name="Rectangle 358" width="2.064" height="23.55" transform="translate(78.66 6.47)" fill="#fff"></rect>
                            <path id="Path_556511" data-name="Path 5565" d="M50.751,41.14h9.534V37.779H54.011V30.93h6.274V27.678H54.011V20.935h6.274V17.594H50.751Z" transform="translate(-32.104 -11.13)" fill="#fff"></path>
                            <path id="Path_556611" data-name="Path 5566" d="M143.3,20.968h6.566V17.6h-9.8V31.08h6.692v6.693h-6.569V41.15h9.743V27.842H143.3Z" transform="translate(-88.599 -11.13)" fill="#fff"></path>
                            <rect id="Rectangle_35911" data-name="Rectangle 359" width="3.239" height="23.546" transform="translate(45.513 6.464)" fill="#fff"></rect>
                            <path id="Path_556711" data-name="Path 5567" d="M182.828,37.729h-5.176V17.516h-3.371V41.048h0V41.1H186.2V17.516h-3.371Z" transform="translate(-110.247 -11.08)" fill="#fff"></path>
                            <rect id="Rectangle_36011" data-name="Rectangle 360" width="3.37" height="20.196" transform="translate(30.889 6.445)" fill="#fff"></rect>
                            <rect id="Rectangle_36111" data-name="Rectangle 361" width="5.175" height="3.37" transform="translate(34.26 26.641)" fill="#fff"></rect>
                            <rect id="Rectangle_36211" data-name="Rectangle 362" width="3.37" height="20.196" transform="translate(39.435 6.445)" fill="#fff"></rect>
                        </g>
                    </svg>