<svg xmlns="http://www.w3.org/2000/svg" xmlns:xlink="http://www.w3.org/1999/xlink" width="100px" height="20px" viewBox="0 0 100 20" version="1.1">
    <!-- Generator: Sketch 56.3 (81716) - https://sketch.com -->
    <title>Combined Shape</title>
    <desc>Created with Sketch.</desc>
    <g id="Design" stroke="none" stroke-width="1" fill="none" fill-rule="evenodd">
        <g id="A_evisu_index" transform="translate(-20.000000, -60.000000)" fill="#231F20">
            <g id="Group-6" transform="translate(-0.000000, 0.000000)">
                <g id="Group-7">
                    <path d="M74.281417,61.0237197 L74.281417,78.976808 C74.281417,79.5393261 73.8039688,80 73.2187274,80 L69.4813482,80 C68.8955624,80 68.4202919,79.5340492 68.4202919,78.9752249 L68.4202919,61.0237197 C68.4202919,60.4580354 68.8955624,60 69.4813482,60 L73.2187274,60 C73.8039688,60 74.281417,60.4580354 74.281417,61.0237197 Z M45.6327318,79.9820585 L32.9583073,79.9820585 C32.1803445,79.9820585 31.21456,79.4417034 30.8089741,78.7805071 L20.1733675,61.2099945 C19.7737701,60.552492 20.0895283,60.0073877 20.8680355,60.0073877 L33.5419156,60.0073877 C34.3231448,60.0073877 35.2823964,60.552492 35.6776386,61.214216 L37.253163,63.8468642 C37.6467719,64.5085882 37.3228476,65.049471 36.5503288,65.049471 L31.0218386,65.049471 C30.2416982,65.049471 29.9003527,65.5391678 30.2689187,66.1428458 C30.6320406,66.7523284 31.3931267,66.9955938 32.1781669,66.9955938 L37.6772589,66.9955938 C38.4541329,66.9955938 39.4166509,67.5338382 39.8102598,68.1892298 L41.5768724,71.0936387 C41.9721145,71.7527242 41.6579896,72.2856917 40.8745827,72.2856917 L35.394545,72.2856917 C34.6138601,72.2856917 34.298102,72.8244637 34.6993326,73.4798554 L34.7254643,73.5257645 C35.1207065,74.1727131 36.0810468,74.7162344 36.8617317,74.7162344 L42.5230581,74.7162344 C43.3059206,74.7162344 44.2597281,75.2534234 44.6478929,75.9162027 L46.3518983,78.7720641 C46.7346189,79.4369542 46.4215828,79.9820585 45.6327318,79.9820585 Z M79.7507297,71.2943194 L79.7507297,61.023878 C79.7507297,60.457666 80.2265446,60.0001583 80.8106973,60.0001583 L84.5497096,60.0001583 L95.4482665,60.0001583 C96.0318747,60.0001583 96.505512,60.457666 96.505512,61.0265165 L96.505512,63.0232975 C96.505512,63.592148 96.0318747,64.0470172 95.4482665,64.0470172 L86.9195292,64.0306588 C86.213973,64.0306588 85.6483303,64.5810401 85.6483303,65.2665101 L85.6483303,65.8680774 C85.6483303,66.5514366 86.213973,67.1018179 86.9195292,67.1018179 L94.0687299,67.0928472 C94.6577823,67.0928472 95.1286975,67.5587979 95.1286975,68.1223714 L95.1286975,78.9769663 C95.1286975,79.5389568 94.6577823,79.9996306 94.0687299,79.9996306 L79.9886372,79.9996306 C79.417006,79.9996306 78.9352026,79.5410675 78.9352026,78.9769663 L78.9352026,75.8018522 C78.9352026,75.2419725 79.417006,74.7802433 79.9886372,74.7802433 L88.0001844,74.7802433 C88.6997521,74.7802433 89.2751941,74.2245851 89.2751941,73.5438643 C89.2751941,72.8620881 88.6997521,72.3032638 88.0001844,72.3032638 L80.8106973,72.3185668 C80.2265446,72.3185668 79.7507297,71.8578929 79.7507297,71.2943194 Z M49.9717391,61.0237197 L53.9644469,70.22506 C54.0798619,70.3886441 54.2720389,70.4989314 54.4892587,70.4989314 C54.7581976,70.4989314 54.9824948,70.342735 55.0815775,70.1247988 L58.1656639,61.0237197 C58.3774396,60.4580354 59.0225663,60 59.6078077,60 L64.7867863,60 C65.3687613,60 65.6687315,60.4580354 65.4596778,61.0237197 L58.6741434,78.9752249 C58.4618233,79.5340492 57.8101637,80 57.2265555,80 L53.2605239,80 C52.6752824,80 51.9637377,79.5340492 51.6882659,78.9752249 L42.6766364,61.0237197 C42.3908208,60.4580354 42.6314503,60 43.2134253,60 L48.4022032,60 C48.9814562,60 49.6897344,60.4580354 49.9717391,61.0237197 Z M109.361389,72.3453207 L113.602348,61.0237197 C113.808679,60.4580354 114.458161,60 115.032514,60 L119.256597,60 C119.83966,60 120.142353,60.4580354 119.934388,61.0237197 L113.238681,78.976808 C113.027994,79.5393261 112.381779,80 111.799804,80 L98.1122312,80 C97.5264453,80 97.1763893,79.5393261 97.3320907,78.976808 L102.290039,61.0237197 C102.451184,60.4580354 103.048947,60 103.629833,60 L107.370479,60 C107.952454,60 108.30251,60.4580354 108.147897,61.0237197 C108.147897,61.0237197 105.140573,72.1738213 105.098653,72.3453207 C104.881978,73.228147 105.608766,74.258199 106.759106,74.258199 C108.297066,74.258199 109.076117,73.1305243 109.361389,72.3453207 Z" id="Combined-Shape"/>
                </g>
            </g>
        </g>
    </g>
<deepl-alert xmlns=""/><deepl-alert xmlns=""/><deepl-alert xmlns=""/></svg>